<svg width="199" height="106" viewBox="0 0 199 106" fill="none" xmlns="http://www.w3.org/2000/svg">
<path d="M6 80.4167C6 78.2536 7.78134 76.5 9.97872 76.5H25.8936C28.091 76.5 29.8723 78.2536 29.8723 80.4167V96.0833C29.8723 98.2465 28.091 100 25.8936 100H9.97872C7.78134 100 6 98.2465 6 96.0833V80.4167Z" fill="white"/>
<path d="M121.383 33.4167C121.383 31.2536 123.164 29.5 125.362 29.5H141.277C143.474 29.5 145.255 31.2536 145.255 33.4167V49.0833C145.255 51.2464 143.474 53 141.277 53H125.362C123.164 53 121.383 51.2464 121.383 49.0833V33.4167Z" fill="white"/>
<path d="M145.255 9.91667C145.255 7.75355 147.037 6 149.234 6H165.149C167.346 6 169.128 7.75355 169.128 9.91667V25.5833C169.128 27.7464 167.346 29.5 165.149 29.5H149.234C147.037 29.5 145.255 27.7464 145.255 25.5833V9.91667Z" fill="white"/>
<path d="M169.128 33.4167C169.128 31.2536 170.909 29.5 173.106 29.5H189.021C191.219 29.5 193 31.2536 193 33.4167V49.0833C193 51.2464 191.219 53 189.021 53H173.106C170.909 53 169.128 51.2464 169.128 49.0833V33.4167Z" fill="white"/>
<path d="M29.8723 56.9167C29.8723 54.7536 31.6537 53 33.8511 53H49.766C51.9633 53 53.7447 54.7536 53.7447 56.9167V72.5833C53.7447 74.7465 51.9633 76.5 49.766 76.5H33.8511C31.6537 76.5 29.8723 74.7465 29.8723 72.5833V56.9167Z" fill="white"/>
<path d="M53.7447 23.625C53.7447 21.4619 55.526 19.7083 57.7234 19.7083H83.5851C85.7825 19.7083 87.5638 21.4619 87.5638 23.625V49.0833C87.5638 51.2464 85.7825 53 83.5851 53H57.7234C55.526 53 53.7447 51.2464 53.7447 49.0833V23.625Z" fill="white"/>
<path d="M87.5638 56.9167C87.5638 54.7536 89.3452 53 91.5426 53H117.404C119.602 53 121.383 54.7536 121.383 56.9167V82.375C121.383 84.5381 119.602 86.2917 117.404 86.2917H91.5426C89.3452 86.2917 87.5638 84.5381 87.5638 82.375V56.9167Z" fill="white"/>
<path d="M6 80.4167C6 78.2536 7.78134 76.5 9.97872 76.5H25.8936C28.091 76.5 29.8723 78.2536 29.8723 80.4167V96.0833C29.8723 98.2465 28.091 100 25.8936 100H9.97872C7.78134 100 6 98.2465 6 96.0833V80.4167Z" stroke="white" stroke-width="12"/>
<path d="M121.383 33.4167C121.383 31.2536 123.164 29.5 125.362 29.5H141.277C143.474 29.5 145.255 31.2536 145.255 33.4167V49.0833C145.255 51.2464 143.474 53 141.277 53H125.362C123.164 53 121.383 51.2464 121.383 49.0833V33.4167Z" stroke="white" stroke-width="12"/>
<path d="M145.255 9.91667C145.255 7.75355 147.037 6 149.234 6H165.149C167.346 6 169.128 7.75355 169.128 9.91667V25.5833C169.128 27.7464 167.346 29.5 165.149 29.5H149.234C147.037 29.5 145.255 27.7464 145.255 25.5833V9.91667Z" stroke="white" stroke-width="12"/>
<path d="M169.128 33.4167C169.128 31.2536 170.909 29.5 173.106 29.5H189.021C191.219 29.5 193 31.2536 193 33.4167V49.0833C193 51.2464 191.219 53 189.021 53H173.106C170.909 53 169.128 51.2464 169.128 49.0833V33.4167Z" stroke="white" stroke-width="12"/>
<path d="M29.8723 56.9167C29.8723 54.7536 31.6537 53 33.8511 53H49.766C51.9633 53 53.7447 54.7536 53.7447 56.9167V72.5833C53.7447 74.7465 51.9633 76.5 49.766 76.5H33.8511C31.6537 76.5 29.8723 74.7465 29.8723 72.5833V56.9167Z" stroke="white" stroke-width="12"/>
<path d="M53.7447 23.625C53.7447 21.4619 55.526 19.7083 57.7234 19.7083H83.5851C85.7825 19.7083 87.5638 21.4619 87.5638 23.625V49.0833C87.5638 51.2464 85.7825 53 83.5851 53H57.7234C55.526 53 53.7447 51.2464 53.7447 49.0833V23.625Z" stroke="white" stroke-width="12"/>
<path d="M87.5638 56.9167C87.5638 54.7536 89.3452 53 91.5426 53H117.404C119.602 53 121.383 54.7536 121.383 56.9167V82.375C121.383 84.5381 119.602 86.2917 117.404 86.2917H91.5426C89.3452 86.2917 87.5638 84.5381 87.5638 82.375V56.9167Z" stroke="white" stroke-width="12"/>
</svg>
